<svg width="67" height="53" viewBox="0 0 67 53" fill="none" xmlns="http://www.w3.org/2000/svg">
<path d="M0.5 40.0536C0.5 42.2634 1.04018 44.3013 2.12054 46.1674C3.20089 48.0335 4.67411 49.5067 6.54018 50.5871C8.40625 51.6674 10.4196 52.2076 12.6049 52.2076H39.1964C41.3817 52.2076 43.4196 51.6674 45.2857 50.5871C47.1518 49.5067 48.6496 48.0335 49.7299 46.1674C50.8103 44.3013 51.375 42.2634 51.375 40.0536C51.375 38.433 51.0312 36.788 50.3438 35.1429C52.2098 32.8839 53.1429 30.1585 53.1429 27.0402C53.1429 25.2969 52.7991 23.6272 52.1362 22.0313C51.4732 20.4353 50.5402 19.0848 49.3862 17.9308C48.2321 16.7768 46.8817 15.8438 45.2857 15.1808C43.6897 14.4933 42.0201 14.1741 40.2768 14.1741C36.6429 14.1741 33.4754 15.5982 30.75 18.4464C28.8594 17.3661 26.6496 16.8259 24.1205 16.8259C20.6585 16.8259 17.6138 17.9063 14.9621 20.0424C12.3103 22.1786 10.5915 24.9286 9.85491 28.2679C7.10491 28.9063 4.87054 30.3058 3.12723 32.5156C1.38393 34.7255 0.5 37.2299 0.5 40.0536ZM4.69866 40.0536C4.69866 37.9911 5.38616 36.2232 6.76116 34.7255C8.13616 33.2277 9.85491 32.3683 11.9174 32.1228L13.1451 32.0491C13.4397 32.0491 13.6116 31.9018 13.6116 31.6072L13.7835 30.2813C14.1272 27.6295 15.2813 25.3951 17.2455 23.6272C19.2098 21.8348 21.5179 20.9509 24.1451 20.9509C26.846 20.9509 29.2031 21.8594 31.192 23.6518C33.2054 25.4442 34.3103 27.654 34.5558 30.3058L34.7277 31.7299C34.7768 32 34.9487 32.1473 35.2433 32.1473H39.1964C41.3571 32.1473 43.2232 32.933 44.7946 34.5045C46.3661 36.0759 47.1518 37.9174 47.1518 40.0781C47.1518 42.3125 46.3661 44.2031 44.8192 45.7745C43.2723 47.346 41.3817 48.1317 39.221 48.1317H12.6049C10.4442 48.1317 8.60268 47.346 7.03125 45.75C5.48438 44.154 4.69866 42.2634 4.69866 40.0536ZM21.1496 9.92635C21.1496 10.5156 21.346 11.0313 21.7388 11.4732L23.3594 13.0447C23.9732 13.5112 24.4888 13.7076 24.9308 13.6585C25.4464 13.6585 25.8884 13.4375 26.2812 13.0201C26.6741 12.6027 26.8705 12.0871 26.8705 11.4978C26.8705 10.9085 26.6496 10.4174 26.2321 10.0491L24.7835 8.42858C24.3415 8.03572 23.8504 7.83929 23.2857 7.83929C22.6964 7.83929 22.1808 8.0357 21.7634 8.45313C21.346 8.846 21.1496 9.33706 21.1496 9.92635ZM34.2612 20.8036C35.9554 19.1585 37.9687 18.3482 40.2768 18.3482C42.7076 18.3482 44.7701 19.183 46.4643 20.8772C48.1585 22.5714 49.0179 24.6094 49.0179 27.0402C49.0179 28.5625 48.6005 30.0848 47.7656 31.558C45.3839 29.2009 42.5357 28.0223 39.1964 28.0223H38.4107C37.7969 25.346 36.4219 22.9397 34.2612 20.8036ZM38.2634 7.83929C38.2634 8.47768 38.4598 8.96876 38.8281 9.36161C39.1964 9.75448 39.6875 9.92635 40.2768 9.92635C40.9152 9.92635 41.4062 9.72994 41.7991 9.36161C42.192 8.96875 42.3638 8.47768 42.3638 7.83929V2.80581C42.3638 2.21652 42.1674 1.75001 41.7746 1.35715C41.3817 0.964284 40.8906 0.792419 40.2768 0.792419C39.6875 0.792419 39.221 0.988825 38.8281 1.35715C38.4353 1.72543 38.2634 2.21652 38.2634 2.80581V7.83929V7.83929ZM51.817 13.4621C51.817 14.1005 51.9888 14.5915 52.3571 14.9844C52.8727 15.3772 53.3884 15.5737 53.8794 15.5737C54.3214 15.5737 54.8125 15.3773 55.3281 14.9844L58.8393 11.4732C59.2321 11.0312 59.4286 10.5156 59.4286 9.90179C59.4286 9.31251 59.2321 8.82144 58.8393 8.42858C58.4464 8.03572 57.9553 7.83929 57.3906 7.83929C56.8013 7.83929 56.3348 8.0357 55.9665 8.42858L52.3571 11.9397C51.9888 12.4062 51.817 12.8973 51.817 13.4621ZM53.7567 42.5335C53.7567 43.1228 53.9531 43.6384 54.3705 44.0804L55.9665 45.6272C56.3348 46.0201 56.8013 46.2165 57.3906 46.2165C57.9799 46.2165 58.471 46.0201 58.8638 45.6027C59.2567 45.1853 59.4531 44.6942 59.4531 44.0804C59.4531 43.5402 59.2567 43.0491 58.8638 42.6563L57.2679 41.0603C56.875 40.6674 56.4085 40.471 55.8683 40.471C55.279 40.471 54.7879 40.6674 54.3951 41.0603C53.9777 41.4531 53.7567 41.9442 53.7567 42.5335V42.5335ZM57.3661 27.0402C57.3661 27.6049 57.5871 28.0714 58.0045 28.4643C58.3973 28.8572 58.9129 29.0536 59.5022 29.0536H64.5112C65.0759 29.0536 65.5424 28.8572 65.9353 28.4888C66.3281 28.1206 66.5 27.6295 66.5 27.0402C66.5 26.4509 66.3036 25.9598 65.9353 25.567C65.567 25.1741 65.0759 24.9531 64.5112 24.9531H59.5022C58.9129 24.9531 58.4219 25.1495 58.0045 25.567C57.5625 25.9844 57.3661 26.4755 57.3661 27.0402Z" fill="#04A5FF"/>
</svg>
