<svg width="32" height="32" viewBox="0 0 32 32" fill="none" xmlns="http://www.w3.org/2000/svg">
<path d="M29.3333 30.3333H6.66663C3.90663 30.3333 1.66663 28.0933 1.66663 25.3333V2.66667C1.66663 2.12 2.11996 1.66667 2.66663 1.66667C3.21329 1.66667 3.66663 2.12 3.66663 2.66667V25.3333C3.66663 26.9867 5.01329 28.3333 6.66663 28.3333H29.3333C29.88 28.3333 30.3333 28.7867 30.3333 29.3333C30.3333 29.88 29.88 30.3333 29.3333 30.3333Z" fill="black"/>
<path d="M6.66662 23.6667C6.43996 23.6667 6.19996 23.5867 6.01329 23.4267C5.81307 23.2525 5.68958 23.0065 5.66961 22.7419C5.64964 22.4773 5.7348 22.2155 5.90662 22.0133L12.0266 14.8667C12.6933 14.0933 13.6533 13.6267 14.6666 13.5867C15.68 13.56 16.68 13.9333 17.4 14.6533L18.6666 15.92C19 16.2533 19.4266 16.4133 19.9066 16.4133C20.3733 16.4 20.8 16.1867 21.1066 15.8267L27.2266 8.68C27.5866 8.26667 28.2133 8.21333 28.64 8.57333C29.0533 8.93333 29.1066 9.56 28.7466 9.98667L22.6266 17.1333C21.96 17.9067 21 18.3733 19.9866 18.4133C19.4824 18.4309 18.9799 18.3454 18.5099 18.162C18.0399 17.9786 17.6123 17.7011 17.2533 17.3467L16 16.08C15.6666 15.7467 15.2266 15.5733 14.76 15.5867C14.2933 15.6 13.8666 15.8133 13.56 16.1733L7.43995 23.32C7.34158 23.4276 7.2222 23.5138 7.08919 23.5734C6.95619 23.6331 6.81237 23.6648 6.66662 23.6667V23.6667Z" fill="black"/>
</svg>
