<svg width="37" height="32" viewBox="0 0 37 32" fill="none" xmlns="http://www.w3.org/2000/svg">
<g clip-path="url(#clip0_6_23)">
<rect width="37" height="32" fill="black"/>
<path fill-rule="evenodd" clip-rule="evenodd" d="M6.61972 20.0931C5.99332 20.0931 5.48181 20.6 5.48181 21.215V30.8758C5.48181 31.4934 5.99332 31.9997 6.61972 31.9997C7.24678 31.9997 7.75764 31.4934 7.75764 30.8758V21.215C7.75764 20.6 7.24678 20.0931 6.61972 20.0931Z" fill="#FEFEFE"/>
<path fill-rule="evenodd" clip-rule="evenodd" d="M14.4402 18.15C13.8131 18.15 13.3022 18.6563 13.3022 19.2719V30.8707C13.3022 31.4863 13.8131 31.9926 14.4402 31.9926C15.0672 31.9926 15.5781 31.4863 15.5781 30.8707V19.2719C15.5781 18.6563 15.0672 18.15 14.4402 18.15Z" fill="#FEFEFE"/>
<path fill-rule="evenodd" clip-rule="evenodd" d="M22.2677 15.0419C21.6413 15.0419 21.1298 15.5481 21.1298 16.1638V30.8767C21.1298 31.495 21.6413 31.9987 22.2677 31.9987C22.8947 31.9987 23.4056 31.495 23.4056 30.8767V16.1638C23.4056 15.5481 22.8947 15.0419 22.2677 15.0419Z" fill="#FEFEFE"/>
<mask id="mask0_6_23" style="mask-type:alpha" maskUnits="userSpaceOnUse" x="28" y="10" width="4" height="22">
<path d="M28.9503 10.98H31.2261V32H28.9503V10.98Z" fill="white"/>
</mask>
<g mask="url(#mask0_6_23)">
<path fill-rule="evenodd" clip-rule="evenodd" d="M30.0882 10.98C29.4612 10.98 28.9503 11.4862 28.9503 12.1012V30.8782C28.9503 31.4939 29.4612 32.0001 30.0882 32.0001C30.7146 32.0001 31.2261 31.4939 31.2261 30.8782V12.1012C31.2261 11.4862 30.7146 10.98 30.0882 10.98Z" fill="#FEFEFE"/>
</g>
<path fill-rule="evenodd" clip-rule="evenodd" d="M36.4286 0H26.4172C26.103 0 25.846 0.25344 25.846 0.56064C25.846 0.73408 27.9342 2.82048 30.2535 5.0848C25.1319 9.65184 19.1217 13.0765 12.3851 15.0144C9.77175 15.7645 7.05452 16.2912 4.33534 16.5235C3.30973 16.6125 2.22115 16.6694 1.18969 16.6285C0.565238 16.599 0.0316587 17.0842 0.00114995 17.6998C-0.0267623 18.311 0.456834 18.8384 1.08324 18.8653C1.39806 18.8787 1.71678 18.8787 2.02901 18.8787C2.86183 18.8717 3.69401 18.8243 4.51969 18.7539C7.38752 18.5075 10.2638 17.9462 13.0232 17.1533C20.1337 15.1053 26.473 11.4867 31.8685 6.65344C34.2339 8.94016 36.4007 10.9946 36.4286 10.9946C36.7402 10.9946 36.9973 10.7418 36.9973 10.4339V0.6112V0.56064C36.9973 0.25344 36.7402 0 36.4286 0Z" fill="#FEFEFE"/>
</g>
<defs>
<clipPath id="clip0_6_23">
<rect width="37" height="32" fill="white"/>
</clipPath>
</defs>
</svg>
