<svg width="32" height="33" viewBox="0 0 58 54" fill="none" xmlns="http://www.w3.org/2000/svg">
<path d="M11.5084 12.0076H45.8532V29.826H11.5084V12.0076Z" fill="#231F20"/>
<path d="M12.3317 33.6706H20.8689V42.0506H12.3317V33.6706Z" fill="#231F20"/>
<path d="M37.0955 33.6706H45.6327V42.0506H37.0955V33.6706Z" fill="#231F20"/>
<path d="M24.7136 33.6706H33.2509V42.0506H24.7136V33.6706Z" fill="#231F20"/>
<path d="M53.8824 0.5H3.47996H3.47919C1.55881 0.5 0.000771238 2.05727 0.000771238 3.97842H0V50.2857H0.0215858C0.129516 52.1097 1.62897 53.559 3.47919 53.559H53.8824C55.7333 53.559 57.2313 52.1097 57.3392 50.2857H57.36V3.97842C57.3608 2.0565 55.8035 0.5 53.8824 0.5V0.5ZM49.6978 45.896H7.66378V8.16224H49.6985V45.896H49.6978Z" fill="#231F20"/>
</svg>
