<svg width="33" height="32" viewBox="0 0 33 32" fill="none" xmlns="http://www.w3.org/2000/svg">
<g opacity="0.8" filter="url(#filter0_d_6_11)">
<path d="M12.1494 19.9316C11.9004 19.8047 11.5928 19.9063 11.4658 20.1703L10.4502 22.2879C10.3233 22.5469 10.4258 22.8668 10.6797 22.9988C10.7529 23.0395 10.8311 23.0547 10.9092 23.0547C11.0947 23.0547 11.2754 22.948 11.3633 22.7602L12.3789 20.6426C12.501 20.3785 12.4033 20.0637 12.1494 19.9316Z" fill="#0386FF"/>
<path d="M15.2012 19.9316C14.9522 19.8047 14.6445 19.9063 14.5176 20.1703L13.502 22.2879C13.375 22.5469 13.4775 22.8668 13.7315 22.9988C13.8047 23.0395 13.8828 23.0547 13.9609 23.0547C14.1465 23.0547 14.3272 22.948 14.415 22.7602L15.4307 20.6426C15.5527 20.3785 15.4551 20.0637 15.2012 19.9316Z" fill="#0386FF"/>
<path d="M18.2529 19.9316C18.0039 19.8047 17.6963 19.9063 17.5693 20.1703L16.5537 22.2879C16.4268 22.5469 16.5293 22.8668 16.7832 22.9988C16.8565 23.0395 16.9346 23.0547 17.0127 23.0547C17.1983 23.0547 17.3789 22.948 17.4668 22.7602L18.4824 20.6426C18.6045 20.3785 18.5068 20.0637 18.2529 19.9316Z" fill="#0386FF"/>
<path d="M21.3047 19.9316C21.0557 19.8047 20.7481 19.9063 20.6211 20.1703L19.6055 22.2879C19.4785 22.5469 19.5811 22.8668 19.835 22.9988C19.9082 23.0395 19.9863 23.0547 20.0645 23.0547C20.25 23.0547 20.4307 22.948 20.5186 22.7602L21.5342 20.6426C21.6563 20.3785 21.5586 20.0637 21.3047 19.9316Z" fill="#0386FF"/>
<path d="M12.1494 15.7016C11.9004 15.5695 11.5928 15.6762 11.4658 15.9402L10.4502 18.0578C10.3233 18.3168 10.4258 18.6367 10.6797 18.7687C10.7529 18.8094 10.8311 18.8246 10.9092 18.8246C11.0947 18.8246 11.2754 18.718 11.3633 18.5301L12.3789 16.4125C12.501 16.1484 12.4033 15.8336 12.1494 15.7016Z" fill="#0386FF"/>
<path d="M15.2012 15.7016C14.9522 15.5695 14.6445 15.6762 14.5176 15.9402L13.502 18.0578C13.375 18.3168 13.4775 18.6367 13.7315 18.7687C13.8047 18.8094 13.8828 18.8246 13.9609 18.8246C14.1465 18.8246 14.3272 18.718 14.415 18.5301L15.4307 16.4125C15.5527 16.1484 15.4551 15.8336 15.2012 15.7016Z" fill="#0386FF"/>
<path d="M18.2529 15.7016C18.0039 15.5695 17.6963 15.6762 17.5693 15.9402L16.5537 18.0578C16.4268 18.3168 16.5293 18.6367 16.7832 18.7687C16.8565 18.8094 16.9346 18.8246 17.0127 18.8246C17.1983 18.8246 17.3789 18.718 17.4668 18.5301L18.4824 16.4125C18.6045 16.1484 18.5068 15.8336 18.2529 15.7016Z" fill="#0386FF"/>
<path d="M21.3047 15.7016C21.0557 15.5695 20.7481 15.6762 20.6211 15.9402L19.6055 18.0578C19.4785 18.3168 19.5811 18.6367 19.835 18.7687C19.9082 18.8094 19.9863 18.8246 20.0645 18.8246C20.25 18.8246 20.4307 18.718 20.5186 18.5301L21.5342 16.4125C21.6563 16.1484 21.5586 15.8336 21.3047 15.7016Z" fill="#0386FF"/>
<path d="M23.1113 7.18047C22.6914 7.18047 22.2617 7.24141 21.8125 7.3582C20.5283 4.66172 17.8916 2.94531 14.9766 2.94531C11.2559 2.94531 8.08203 5.75352 7.46191 9.53672C5.57715 10.1715 4.29297 11.9793 4.29297 14.0562C4.29297 16.6816 6.34863 18.8145 8.86816 18.8145C9.15137 18.8145 9.37598 18.5758 9.37598 18.2863C9.37598 17.9918 9.14648 17.7582 8.86816 17.7582C6.90527 17.7582 5.30859 16.0977 5.30859 14.0562C5.30859 12.3449 6.42676 10.8723 8.0332 10.4711C8.23828 10.4203 8.39453 10.2426 8.41895 10.0242C8.83398 6.59141 11.6514 4.00664 14.9766 4.00664C17.6377 4.00664 20.0303 5.65195 21.0654 8.20117C21.168 8.45508 21.4463 8.58203 21.6904 8.4957C22.2031 8.31797 22.667 8.23672 23.1113 8.23672C25.6357 8.23672 27.6865 10.3746 27.6865 12.9949C27.6865 15.6152 25.6309 17.7531 23.1113 17.7531C22.8281 17.7531 22.6035 17.9918 22.6035 18.2812C22.6035 18.5758 22.833 18.8094 23.1113 18.8094C26.1973 18.8094 28.707 16.1992 28.707 12.9898C28.707 9.78047 26.1973 7.18047 23.1113 7.18047Z" fill="#0386FF"/>
</g>
<defs>
<filter id="filter0_d_6_11" x="0" y="0" width="33" height="34" filterUnits="userSpaceOnUse" color-interpolation-filters="sRGB">
<feFlood flood-opacity="0" result="BackgroundImageFix"/>
<feColorMatrix in="SourceAlpha" type="matrix" values="0 0 0 0 0 0 0 0 0 0 0 0 0 0 0 0 0 0 127 0" result="hardAlpha"/>
<feOffset dy="4"/>
<feGaussianBlur stdDeviation="2"/>
<feComposite in2="hardAlpha" operator="out"/>
<feColorMatrix type="matrix" values="0 0 0 0 0 0 0 0 0 0 0 0 0 0 0 0 0 0 0.25 0"/>
<feBlend mode="normal" in2="BackgroundImageFix" result="effect1_dropShadow_6_11"/>
<feBlend mode="normal" in="SourceGraphic" in2="effect1_dropShadow_6_11" result="shape"/>
</filter>
</defs>
</svg>
